<?xml version="1.0" encoding="utf-8"?>
<!-- Generator: Adobe Illustrator 25.0.0, SVG Export Plug-In . SVG Version: 6.00 Build 0)  -->
<svg version="1.1" id="katman_1" xmlns="http://www.w3.org/2000/svg" xmlns:xlink="http://www.w3.org/1999/xlink" x="0px" y="0px"
	 viewBox="0 0 401.7 285.3" style="enable-background:new 0 0 401.7 285.3;" xml:space="preserve">
<g id="Layer_2">
	<g id="Layer_1-2">
		<path d="M285.7,68.8l-28.5,14.5l-137.4,70c-0.5-3.5-0.7-7.1-0.7-10.7c0.1-45.2,36.8-81.8,82-81.8c13.9,0,27.6,3.6,39.8,10.4
			l16.3-8.3l2.4-1.2c-44.7-32.4-107.2-22.5-139.7,22.2c-12.4,17.1-19.1,37.6-19.1,58.8c0,2.5,0.1,5.1,0.3,7.6
			c0.6,7.3-3.3,14.2-9.9,17.6l-8.6,4.4v20.4l25.3-12.9l0,0l8.2-4.2l8.1-4.1l0,0l144.9-73.8l16.3-8.3L319,72.2V51.8L285.7,68.8z"/>
		<path d="M319,92.7l-186.6,95l-16.3,8.3L82.7,213v20.4l33.3-16.9l28.5-14.5L282,131.9c0.5,3.6,0.7,7.2,0.7,10.8
			c0,45.2-36.7,81.8-81.9,81.8c-14,0-27.8-3.6-40-10.5l-1,0.5l-17.7,9c44.7,32.4,107.2,22.5,139.7-22.2
			c12.4-17.1,19.1-37.6,19.1-58.7c0-2.6-0.1-5.1-0.3-7.7c-0.6-7.3,3.3-14.2,9.9-17.6l8.6-4.4V92.7z"/>
	</g>
</g>
</svg>
